<svg version="1.1" viewBox="0.0 20.0 960.0 440.0" fill="none" stroke="none" stroke-linecap="square" stroke-miterlimit="10" xmlns:xlink="http://www.w3.org/1999/xlink" xmlns="http://www.w3.org/2000/svg">
<clipPath id="g2cc71b4ba4e_0_8.0"><path d="m0 0l960.0 0l0 540.0l-960.0 0l0 -540.0z" clip-rule="nonzero"/>
</clipPath><g clip-path="url(#g2cc71b4ba4e_0_8.0)">
<!-- <path fill="#000000" d="m0 0l960.0 0l0 540.0l-960.0 0z" fill-rule="evenodd"/> -->
<path fill="#000000" fill-opacity="0.0" d="m183.05005 285.77054c72.40158 0 108.602356 -44.456696 144.80316 -88.91339c36.200775 -44.456696 72.40155 -88.91338 144.80313 -88.91338" fill-rule="evenodd"/>
<path stroke="#ffffff" stroke-width="8.0" stroke-linejoin="round" stroke-linecap="butt" d="m183.05005 285.77054c72.40158 0 108.602356 -44.456696 144.80316 -88.91339c36.200775 -44.456696 72.40155 -88.91338 144.80313 -88.91338" fill-rule="evenodd"/><path fill="#000000" fill-opacity="0.0" d="m472.65616 107.97785l123.08664 -0.06298828" fill-rule="evenodd"/><path stroke="#ffffff" stroke-width="8.0" stroke-linejoin="round" stroke-linecap="butt" d="m472.65616 107.97785l123.08664 -0.06298828" fill-rule="evenodd"/><path fill="#000000" fill-opacity="0.0" d="m589.07874 107.94376l210.42523 0.37795258" fill-rule="evenodd"/><path stroke="#ffffff" stroke-width="8.0" stroke-linejoin="round" stroke-linecap="butt" stroke-dasharray="32.0,24.0" d="m589.07874 107.94376l210.42523 0.37795258" fill-rule="evenodd"/><path fill="#000000" fill-opacity="0.0" d="m0 144.18636l960.0 0l0 277.95276l-960.0 0z" fill-rule="evenodd"/><path fill="#29caab" d="m168.74432 82.78634l23.671875 0l0 203.51562l125.4375 0l0 20.484375l-149.10938 0l0 -224.0z" fill-rule="nonzero"/><path fill="#29caab" d="m335.14618 199.1926l31.1875 0l0 107.59375l-31.1875 0l0 -107.59375zm15.59375 -15.0q-8.59375 0 -14.0 -5.0q-5.40625 -5.0 -5.40625 -12.40625q0 -7.40625 5.40625 -12.40625q5.40625 -5.0 14.0 -5.0q8.59375 0 14.0 4.8125q5.40625 4.796875 5.40625 12.0q0 7.796875 -5.40625 12.90625q-5.40625 5.09375 -14.0 5.09375zm120.99689 -19.8125q25.0 0 39.0 15.703125q14.0 15.703125 14.0 44.703125l0 82.0l-32.390625 0l0 -81.0q0 -16.796875 -7.90625 -25.296875q-7.90625 -8.5 -21.90625 -8.5q-14.796875 0 -23.703125 9.109375q-8.890625 9.09375 -8.890625 26.890625l0 78.796875l-32.40625 0l0 -140.0l31.40625 0l0 17.0q7.203125 -9.59375 18.0 -14.5q10.796875 -4.90625 24.796875 -4.90625zm199.4032 130.40625q-10.0 6.796875 -25.109375 10.609375q-15.09375 3.796875 -32.09375 3.796875q-21.203125 0 -36.0 -5.296875q-14.796875 -5.3125 -22.40625 -14.8125q-7.59375 -9.5 -7.59375 -21.703125q0 -11.1875 6.203125 -19.78125q6.203125 -8.609375 17.0 -12.8125q-8.203125 -4.40625 -12.703125 -12.0q-4.5 -7.59375 -4.5 -17.0q0 -11.40625 7.0 -20.796875q7.0 -9.40625 21.203125 -15.0q14.203125 -5.609375 34.796875 -5.609375q13.609375 0 26.609375 2.703125q13.0 2.703125 22.59375 7.296875l-9.0 24.8125q-18.40625 -8.609375 -39.0 -8.609375q-15.59375 0 -23.5 4.703125q-7.90625 4.703125 -7.90625 12.703125q0 7.390625 5.296875 11.296875q5.3125 3.90625 16.109375 3.90625l38.203125 0l0 25.59375l-40.203125 0q-12.203125 0 -18.8125 4.203125q-6.59375 4.203125 -6.59375 12.203125q0 8.390625 8.5 13.09375q8.5 4.703125 26.109375 4.703125q12.390625 0 24.796875 -3.296875q12.40625 -3.3125 21.0 -9.3125l10.0 24.40625zm76.993774 -130.40625q19.40625 0 33.796875 7.609375q14.40625 7.59375 22.40625 22.40625q8.0 14.796875 8.0 35.796875l0 76.59375l-32.390625 0l0 -33.59375l-64.0 0l0 33.59375l-32.0 0l0 -76.59375q0 -21.0 8.0 -35.796875q8.0 -14.8125 22.390625 -22.40625q14.40625 -7.609375 33.796875 -7.609375zm31.8125 82.8125l0 -20.0q0 -17.40625 -8.609375 -26.296875q-8.59375 -8.90625 -23.390625 -8.90625q-15.0 0 -23.5 8.90625q-8.5 8.890625 -8.5 26.296875l0 20.0l64.0 0z" fill-rule="nonzero"/><path fill="#ffffff" d="m187.12314 320.23007q10.5625 0 18.609375 4.21875q8.046875 4.203125 12.46875 12.265625q4.4375 8.046875 4.4375 19.359375l0 40.3125l-21.125 0l0 -16.53125l-29.109375 0l0 16.53125l-20.796875 0l0 -40.3125q0 -11.3125 4.421875 -19.359375q4.421875 -8.0625 12.46875 -12.265625q8.0625 -4.21875 18.625 -4.21875zm14.390625 43.3125l0 -9.28125q0 -8.21875 -3.953125 -12.375q-3.9375 -4.15625 -10.546875 -4.15625q-6.71875 0 -10.671875 4.15625q-3.9375 4.15625 -3.9375 12.375l0 9.28125l29.109375 0zm77.87262 -43.3125q13.328125 0 20.6875 8.484375q7.359375 8.484375 7.359375 24.15625l0 43.515625l-21.125 0l0 -42.875q0 -7.890625 -3.578125 -11.828125q-3.5625 -3.953125 -9.96875 -3.953125q-6.609375 0 -10.671875 4.21875q-4.046875 4.203125 -4.046875 12.625l0 41.8125l-21.109375 0l0 -74.65625l20.46875 0l0 8.53125q7.578125 -10.03125 21.984375 -10.03125zm77.21365 0q10.5625 0 18.609375 4.21875q8.046875 4.203125 12.46875 12.265625q4.4375 8.046875 4.4375 19.359375l0 40.3125l-21.125 0l0 -16.53125l-29.109375 0l0 16.53125l-20.796875 0l0 -40.3125q0 -11.3125 4.421875 -19.359375q4.421875 -8.0625 12.46875 -12.265625q8.0625 -4.21875 18.625 -4.21875zm14.390625 43.3125l0 -9.28125q0 -8.21875 -3.953125 -12.375q-3.9375 -4.15625 -10.546875 -4.15625q-6.71875 0 -10.671875 4.15625q-3.9375 4.15625 -3.9375 12.375l0 9.28125l29.109375 0zm35.419495 -41.8125l21.109375 0l0 57.90625l35.625 0l0 16.75l-56.734375 0l0 -74.65625zm132.04175 0l0 50.65625q0 11.3125 -4.484375 19.359375q-4.484375 8.046875 -12.75 12.15625q-8.265625 4.109375 -19.56247 4.109375q-9.921875 0 -17.984375 -2.515625q-8.046875 -2.5 -13.796875 -7.078125l7.890625 -15.25q5.109375 3.71875 10.96875 5.640625q5.875 1.921875 12.0625 1.921875q8.53125 0 12.5312195 -4.15625q4.0 -4.15625 4.0 -13.015625l0 -3.40625q-7.1405945 8.640625 -20.15622 8.640625q-14.078125 0 -21.65625 -8.046875q-7.5625 -8.0625 -7.5625 -23.09375l0 -25.921875l21.109375 0l0 24.53125q0 7.5625 3.46875 11.359375q3.46875 3.78125 10.078125 3.78125q6.71875 0 10.7187195 -3.9375q4.0 -3.953125 4.0 -12.265625l0 -23.46875l21.125 0zm71.665405 23.46875q-9.375 -5.234375 -19.09375 -6.9375l0 58.125l-21.109375 0l0 -58.125q-9.921875 1.703125 -19.09375 6.9375l-7.046875 -15.359375q7.796875 -4.703125 17.234375 -7.15625q9.4375 -2.453125 19.46875 -2.453125q10.015625 0 19.453125 2.453125q9.4375 2.453125 17.234375 7.15625l-7.046875 15.359375zm42.76819 -7.15625l0 42.03125l12.0625 0l0 16.3125l-45.328125 0l0 -16.3125l12.15625 0l0 -42.03125l-12.15625 0l0 -16.3125l45.328125 0l0 16.3125l-12.0625 0zm60.156982 59.84375q-11.734375 0 -21.0625 -4.953125q-9.328125 -4.96875 -14.671875 -13.8125q-5.328125 -8.859375 -5.328125 -20.0625q0 -11.203125 5.328125 -20.046875q5.34375 -8.859375 14.671875 -13.8125q9.328125 -4.96875 21.0625 -4.96875q10.234375 0 18.453125 3.625q8.21875 3.625 13.65625 10.453125l-13.4375 12.15625q-7.265625 -8.734375 -17.609375 -8.734375q-6.078125 0 -10.828125 2.671875q-4.734375 2.65625 -7.359375 7.515625q-2.609375 4.84375 -2.609375 11.140625q0 6.296875 2.609375 11.15625q2.625 4.84375 7.359375 7.515625q4.75 2.65625 10.828125 2.65625q10.34375 0 17.609375 -8.75l13.4375 12.171875q-5.4375 6.8125 -13.65625 10.453125q-8.21875 3.625 -18.453125 3.625zm66.87463 0q-9.0625 0 -17.59375 -2.234375q-8.53125 -2.25 -13.875 -5.984375l6.9375 -15.578125q5.015625 3.3125 11.625 5.34375q6.609375 2.015625 13.015625 2.015625q12.15625 0 12.15625 -6.078125q0 -3.203125 -3.46875 -4.734375q-3.46875 -1.546875 -11.140625 -3.265625q-8.421875 -1.8125 -14.078125 -3.890625q-5.65625 -2.078125 -9.71875 -6.65625q-4.046875 -4.59375 -4.046875 -12.375q0 -6.828125 3.734375 -12.3125q3.734375 -5.5 11.140625 -8.703125q7.421875 -3.203125 18.1875 -3.203125q7.359375 0 14.5 1.65625q7.15625 1.65625 12.59375 4.859375l-6.5 15.671875q-10.671875 -5.765625 -20.703125 -5.765625q-6.28125 0 -9.171875 1.875q-2.875 1.859375 -2.875 4.84375q0 3.0 3.40625 4.5q3.421875 1.484375 11.0 3.078125q8.53125 1.8125 14.125 3.890625q5.59375 2.078125 9.703125 6.625q4.109375 4.53125 4.109375 12.3125q0 6.71875 -3.734375 12.15625q-3.734375 5.4375 -11.203125 8.703125q-7.453125 3.25 -18.125 3.25z" fill-rule="nonzero"/><path fill="#ff0061" d="m330.45145 167.39108l0 0c0 -10.428192 9.116455 -18.881897 20.362213 -18.881897l0 0c11.245728 0 20.362183 8.453705 20.362183 18.881897l0 0c0 10.428177 -9.116455 18.881882 -20.362183 18.881882l0 0c-11.245758 0 -20.362213 -8.453705 -20.362213 -18.881882z" fill-rule="evenodd"/></g></svg>